<svg xmlns="http://www.w3.org/2000/svg" viewBox="0 0 569.5 2" style="enable-background:new 0 0 569.5 2" xml:space="preserve">
    <path class="st0" d="M0 0h5v2H0zM12 0h5v2h-5zM24 0h5v2h-5zM36 0h5v2h-5zM48 0h5v2h-5zM60.1 0h5v2h-5zM72.1 0h5v2h-5zM84.1 0h5v2h-5zM96.1 0h5v2h-5zM108.1 0h5v2h-5zM120.1 0h5v2h-5zM132.1 0h5v2h-5zM144.1 0h5v2h-5zM156.1 0h5v2h-5zM168.1 0h5v2h-5zM180.2 0h5v2h-5zM192.2 0h5v2h-5zM204.2 0h5v2h-5zM216.2 0h5v2h-5zM228.2 0h5v2h-5zM240.2 0h5v2h-5zM252.2 0h5v2h-5zM264.2 0h5v2h-5zM276.2 0h5v2h-5zM288.3 0h5v2h-5zM300.3 0h5v2h-5zM312.3 0h5v2h-5zM324.3 0h5v2h-5zM336.3 0h5v2h-5zM348.3 0h5v2h-5zM360.3 0h5v2h-5zM372.3 0h5v2h-5zM384.3 0h5v2h-5zM396.3 0h5v2h-5zM408.4 0h5v2h-5zM420.4 0h5v2h-5zM432.4 0h5v2h-5zM444.4 0h5v2h-5zM456.4 0h5v2h-5zM468.4 0h5v2h-5zM480.4 0h5v2h-5zM492.4 0h5v2h-5zM504.4 0h5v2h-5zM516.5 0h5v2h-5zM528.5 0h5v2h-5zM540.5 0h5v2h-5zM552.5 0h5v2h-5zM564.5 0h5v2h-5z"/>
</svg>
